<svg xmlns="http://www.w3.org/2000/svg" viewBox="0 0 400 400">
  <defs>
    <style>
      .text-orange { fill: #E55225; font-family: Georgia, serif; font-weight: bold; }
      .lion-orange { fill: #F47A3E; }
    </style>
  </defs>
  <!-- Circular text path top -->
  <path id="curve-top" d="M 120 150 A 100 100 0 0 1 280 150" fill="transparent" />
  <text class="text-orange" font-size="48">
    <textPath href="#curve-top" startOffset="50%" text-anchor="middle">simba</textPath>
  </text>
  <!-- Lion Head Placeholder -->
  <path class="lion-orange" d="M200 130 C 130 130, 100 200, 110 260 C 120 310, 180 320, 200 320 C 220 320, 280 310, 290 260 C 300 200, 270 130, 200 130 Z M200 290 C 180 290, 150 280, 140 240 C 180 240, 190 260, 200 260 C 210 260, 220 240, 260 240 C 250 280, 220 290, 200 290 Z M 160 210 A 10 10 0 1 1 160 190 A 10 10 0 1 1 160 210 Z M 240 210 A 10 10 0 1 1 240 190 A 10 10 0 1 1 240 210 Z" />
  <!-- Circular text path bottom -->
  <path id="curve-bot" d="M 90 250 A 120 120 0 0 0 310 250" fill="transparent" />
  <text class="text-orange" font-size="44">
    <textPath href="#curve-bot" startOffset="50%" text-anchor="middle">Supermarket</textPath>
  </text>
</svg>
